HIERARCHY
ROOT Hips
{
 OFFSET 0.000000 0.000000 0.000000
 CHANNELS 6 Xposition Yposition Zposition Yrotation Xrotation Zrotation
 JOINT Chest
 {
  OFFSET 0.000000 9.585900 0.002600
  CHANNELS 3 Yrotation Xrotation Zrotation
  JOINT Chest2
  {
   OFFSET 0.000000 9.601200 -0.005300
   CHANNELS 3 Yrotation Xrotation Zrotation
   JOINT Chest3
   {
    OFFSET 0.000000 9.561800 0.000000
    CHANNELS 3 Yrotation Xrotation Zrotation
    JOINT Chest4
    {
     OFFSET 0.000000 9.552100 0.000000
     CHANNELS 3 Yrotation Xrotation Zrotation
     JOINT Neck
     {
      OFFSET 0.000000 14.453000 0.000000
      CHANNELS 3 Yrotation Xrotation Zrotation
      JOINT Head
      {
       OFFSET 0.000000 8.936500 -0.011300
       CHANNELS 3 Yrotation Xrotation Zrotation
       End Site
       {
        OFFSET 0.000000 17.073600 -0.006000
       }
      }
     }
     JOINT RightCollar
     {
      OFFSET -2.921100 9.558500 0.000000
      CHANNELS 3 Yrotation Xrotation Zrotation
      JOINT RightShoulder
      {
       OFFSET -13.519700 0.000000 0.000000
       CHANNELS 3 Yrotation Xrotation Zrotation
       JOINT RightElbow
       {
        OFFSET 0.000000 -29.696600 0.000000
        CHANNELS 3 Yrotation Xrotation Zrotation
        JOINT RightWrist
        {
         OFFSET 0.000000 -24.004700 0.000000
         CHANNELS 3 Yrotation Xrotation Zrotation
         End Site
         {
          OFFSET 0.000000 -17.728500 0.000000
         }
        }
       }
      }
     }
     JOINT LeftCollar
     {
      OFFSET 2.921100 9.558500 0.000000
      CHANNELS 3 Yrotation Xrotation Zrotation
      JOINT LeftShoulder
      {
       OFFSET 13.519700 0.000000 0.000000
       CHANNELS 3 Yrotation Xrotation Zrotation
       JOINT LeftElbow
       {
        OFFSET 0.000000 -29.696600 0.000000
        CHANNELS 3 Yrotation Xrotation Zrotation
        JOINT LeftWrist
        {
         OFFSET 0.000000 -24.004700 0.000000
         CHANNELS 3 Yrotation Xrotation Zrotation
         End Site
         {
          OFFSET 0.000000 -17.728500 0.000000
         }
        }
       }
      }
     }
    }
   }
  }
 }
 JOINT RightHip
 {
  OFFSET -7.771700 -0.012900 -0.001300
  CHANNELS 3 Yrotation Xrotation Zrotation
  JOINT RightKnee
  {
   OFFSET 0.000000 -40.869800 0.001200
   CHANNELS 3 Yrotation Xrotation Zrotation
   JOINT RightAnkle
   {
    OFFSET 0.000000 -39.717900 0.002100
    CHANNELS 3 Yrotation Xrotation Zrotation
    JOINT RightToe
    {
     OFFSET 0.000000 -4.965400 11.033500
     CHANNELS 3 Yrotation Xrotation Zrotation
     End Site
     {
      OFFSET 0.000000 -1.423100 5.872300
     }
    }
   }
  }
 }
 JOINT LeftHip
 {
  OFFSET 7.771700 -0.012900 -0.001300
  CHANNELS 3 Yrotation Xrotation Zrotation
  JOINT LeftKnee
  {
   OFFSET 0.000000 -40.869800 0.001200
   CHANNELS 3 Yrotation Xrotation Zrotation
   JOINT LeftAnkle
   {
    OFFSET 0.000000 -39.717900 0.002100
    CHANNELS 3 Yrotation Xrotation Zrotation
    JOINT LeftToe
    {
     OFFSET 0.000000 -4.965400 11.033500
     CHANNELS 3 Yrotation Xrotation Zrotation
     End Site
     {
      OFFSET 0.000000 -1.423100 5.872300
     }
    }
   }
  }
 }
}
MOTION
Frames: 5
Frame Time: 0.008333
-23.456382 44.261702 25.834758 -179.795848 -39.024752 -3.037383 0.947371 32.003430 -0.740159 0.234902 6.670912 -0.021845 0.363958 10.293900 -0.019621 0.916021 25.142228 0.068363 0.988254 21.825149 -14.115802 4.424255 -1.221012 -16.346887 15.876711 3.900574 -3.783207 -1.731835 -29.622869 0.457965 -53.498282 -15.121258 9.636901 -17.576794 -3.515900 -15.461880 -20.780546 1.537375 -9.481432 9.246542 -28.434169 7.043281 38.097759 -31.172928 -22.076971 18.970383 4.533260 26.348189 -3.278073 -51.163908 7.153157 -158.751166 68.171263 -156.525085 -10.099468 -26.238636 8.280079 0.572460 -0.971483 0.277842 0.763368 -35.028408 -1.540419 175.583154 58.469680 175.612374 -0.699777 -44.751697 3.492127 0.132021 0.311643 0.073579
-23.450830 44.254465 25.832223 -179.780206 -39.063368 -3.037546 0.940136 32.006926 -0.736458 0.229331 6.697413 -0.030340 0.363984 10.283949 -0.017152 0.907740 25.120551 0.071711 0.381485 21.396354 -14.110239 3.735515 -1.779928 -16.171210 15.848366 3.796329 -3.808342 -1.690161 -29.539904 0.492327 -53.338933 -15.213687 9.603801 -17.496680 -3.491291 -15.524894 -20.793891 1.442761 -9.483577 9.287772 -28.309056 7.089985 37.893311 -31.270177 -21.997377 18.944422 4.575453 26.369766 -3.343375 -51.139804 7.211895 -158.659505 68.138183 -156.485367 -10.081542 -26.225617 8.272201 0.565038 -1.001637 0.287496 0.730349 -34.996893 -1.516771 175.634541 58.465165 175.633802 -0.721493 -44.745028 3.509949 0.139946 0.306992 0.074768
-23.446817 44.245279 25.832689 -179.777412 -39.081563 -3.025033 0.936495 31.990279 -0.738477 0.228502 6.695454 -0.030058 0.357977 10.301363 -0.022721 0.898474 25.108553 0.073801 -0.180487 20.960607 -14.079001 3.095712 -2.326942 -15.984995 15.826730 3.702658 -3.825890 -1.670114 -29.438754 0.514020 -53.135813 -15.335113 9.598582 -17.403611 -3.464499 -15.598722 -20.808645 1.335485 -9.477662 9.331117 -28.176425 7.108366 37.678287 -31.379963 -21.898382 18.916211 4.620190 26.394163 -3.389279 -51.137346 7.265001 -158.558513 68.106324 -156.452235 -10.032728 -26.223346 8.283367 0.516110 -1.009964 0.284936 0.732753 -34.986407 -1.525453 175.648239 58.461894 175.642463 -0.726172 -44.745458 3.512935 0.142347 0.311807 0.074464
-23.443389 44.237029 25.832806 -179.761419 -39.103767 -3.021203 0.917767 32.004549 -0.751273 0.227359 6.633142 -0.007797 0.347618 10.295388 -0.022467 0.890460 25.175340 0.048832 -0.696999 20.511039 -14.018260 2.506562 -2.860788 -15.790868 15.814938 3.649226 -3.833907 -1.661514 -29.386522 0.524676 -52.916582 -15.475470 9.606523 -17.302628 -3.435429 -15.684745 -20.829896 1.209783 -9.451200 9.378640 -28.039412 7.119326 37.462112 -31.487736 -21.803009 18.886808 4.666614 26.422407 -3.425424 -51.126689 7.294194 -158.504249 68.083727 -156.429191 -10.036073 -26.229831 8.279170 0.541588 -1.012542 0.289985 0.726058 -34.971789 -1.529857 175.638713 58.462853 175.627036 -0.742254 -44.744465 3.518976 0.136814 0.320044 0.073748
-23.438629 44.228989 25.833746 -179.742216 -39.121285 -3.029994 0.903879 31.990728 -0.740751 0.223987 6.648871 -0.013496 0.341709 10.278261 -0.013707 0.876924 25.168173 0.044281 -1.166326 20.103200 -13.951972 1.966374 -3.380027 -15.589152 15.809702 3.628015 -3.846563 -1.652639 -29.334211 0.535255 -52.690367 -15.622997 9.623096 -17.197769 -3.404330 -15.779462 -20.844959 1.106547 -9.438472 9.391524 -27.865709 7.221038 37.330641 -31.564924 -21.807949 18.858801 4.714730 26.456314 -3.448185 -51.115014 7.307940 -158.480588 68.069021 -156.417603 -10.017155 -26.255073 8.281128 0.506082 -0.996895 0.273998 0.707158 -34.966428 -1.509380 175.655980 58.457732 175.632593 -0.771782 -44.734944 3.531606 0.138800 0.317255 0.077078
